<?xml version="1.0" standalone="no"?><svg xmlns="http://www.w3.org/2000/svg" viewBox="0 0 1440 320"><path fill="ffffff" fill-opacity="1" d="M0,160L46.5,96L92.9,224L139.4,32L185.8,32L232.3,128L278.7,288L325.2,0L371.6,256L418.1,288L464.5,192L511,96L557.4,64L603.9,256L650.3,96L696.8,128L743.2,288L789.7,160L836.1,64L882.6,64L929,160L975.5,128L1021.9,64L1068.4,288L1114.8,320L1161.3,160L1207.7,32L1254.2,192L1300.6,224L1347.1,128L1393.5,192L1440,64L1440,0L1393.5,0L1347.1,0L1300.6,0L1254.2,0L1207.7,0L1161.3,0L1114.8,0L1068.4,0L1021.9,0L975.5,0L929,0L882.6,0L836.1,0L789.7,0L743.2,0L696.8,0L650.3,0L603.9,0L557.4,0L511,0L464.5,0L418.1,0L371.6,0L325.2,0L278.7,0L232.3,0L185.8,0L139.4,0L92.9,0L46.5,0L0,0Z"></path></svg>